<svg width="26" height="24" viewBox="0 0 26 24" fill="none" xmlns="http://www.w3.org/2000/svg">
<path d="M12.8523 19.7874L12.725 19.9146L12.585 19.7874C6.54065 14.3029 2.545 10.6763 2.545 6.99875C2.545 4.45375 4.45375 2.545 6.99875 2.545C8.9584 2.545 10.8671 3.8175 11.5416 5.5481H13.9084C14.5829 3.8175 16.4916 2.545 18.4513 2.545C20.9963 2.545 22.905 4.45375 22.905 6.99875C22.905 10.6763 18.9094 14.3029 12.8523 19.7874ZM18.4513 0C16.2371 0 14.112 1.03072 12.725 2.6468C11.338 1.03072 9.2129 0 6.99875 0C3.07945 0 0 3.06673 0 6.99875C0 11.7961 4.3265 15.7281 10.8799 21.6707L12.725 23.3504L14.5701 21.6707C21.1235 15.7281 25.45 11.7961 25.45 6.99875C25.45 3.06673 22.3706 0 18.4513 0Z" fill="#FF2A2E"/>
</svg>
